<svg width="31" height="31" viewBox="0 0 31 31" fill="none" xmlns="http://www.w3.org/2000/svg">
<path d="M30.1015 9.14038L16.1548 28.2025C15.7609 28.7409 14.9126 28.5602 14.773 27.9074L12.7187 18.3102C12.6539 18.0074 12.7756 17.6952 13.0283 17.5163L15.4527 15.7994L12.6355 16.7422C12.3419 16.8404 12.018 16.7543 11.8119 16.5233L5.27945 9.19842C4.83481 8.69975 5.19075 7.90895 5.85724 7.90891L29.4766 7.90896C30.1108 7.90915 30.4743 8.63109 30.1015 9.14038ZM7.58506 9.45742L12.628 15.112L19.9325 12.6674C20.2966 12.5457 20.6949 12.709 20.8686 13.0513C21.0423 13.3936 20.9389 13.8116 20.6257 14.0334L14.3395 18.4851L15.9254 25.8939L27.9511 9.45741L7.58506 9.45742ZM9.39758 18.0038L2.91479 21.2934C2.53357 21.4869 2.38122 21.9528 2.57473 22.3341C2.76818 22.7154 3.23413 22.8677 3.61542 22.6742L10.0982 19.3846C10.4795 19.191 10.6318 18.7251 10.4383 18.3439C10.2448 17.9626 9.77886 17.8103 9.39758 18.0038ZM7.10341 24.3985C7.2969 24.7798 7.76281 24.9321 8.14409 24.7386L10.7022 23.4406C11.0835 23.2471 11.2357 22.7811 11.0422 22.3999C10.8487 22.0185 10.3828 21.8663 10.0015 22.0598L7.44347 23.3578C7.06226 23.5512 6.90994 24.0172 7.10341 24.3985ZM7.52156 15.4615C7.32811 15.0802 6.86215 14.9279 6.48087 15.1215L3.92282 16.4195C3.73214 16.5162 3.59876 16.6811 3.53723 16.8694C3.32492 17.5191 4.0067 18.1132 4.62346 17.8002L7.18152 16.5021C7.56281 16.3087 7.71507 15.8428 7.52156 15.4615Z" fill="white"/>
</svg>
